<svg width="192" height="192" viewBox="0 0 192 192" fill="none" xmlns="http://www.w3.org/2000/svg">
<rect width="192" height="192" fill="white"/>
<path d="M82.2468 16C83.747 16 85.0893 16.88 85.721 18.08L103.25 49.76L103.961 52L103.25 54.24L85.721 85.92C85.0893 87.12 83.747 88 82.2468 88H46.7143C45.214 88 43.8717 87.12 43.24 85.92L25.7106 54.24L25 52L25.7106 49.76L43.24 18.08C43.8717 16.88 45.214 16 46.7143 16H82.2468ZM82.2468 104C83.747 104 85.0893 104.88 85.721 106.08L103.25 137.76L103.961 140L103.25 142.24L85.721 173.92C85.0893 175.12 83.747 176 82.2468 176H46.7143C45.214 176 43.8717 175.12 43.24 173.92L25.7106 142.24L25 140L25.7106 137.76L43.24 106.08C43.8717 104.88 45.214 104 46.7143 104H82.2468ZM155.286 60C156.786 60 158.128 60.88 158.76 62.08L176.289 93.76L177 96L176.289 98.24L158.76 129.92C158.128 131.12 156.786 132 155.286 132H119.753C118.253 132 116.911 131.12 116.279 129.92L98.7496 98.24L98.039 96L98.7496 93.76L116.279 62.08C116.911 60.88 118.253 60 119.753 60H155.286Z" fill="#434343"/>
</svg>
